<mxfile host="app.diagrams.net" modified="2021-01-25T07:36:13.914Z" agent="5.0 (Windows NT 10.0; Win64; x64) AppleWebKit/537.36 (KHTML, like Gecko) Chrome/87.0.4280.141 Safari/537.36" etag="jhmxYN41hWF7tG4cbx0-" version="14.1.2" type="github">
  <diagram id="vv8O67tImIsYpwHOuYqv" name="Page-1">
    <mxGraphModel dx="886" dy="446" grid="1" gridSize="10" guides="1" tooltips="1" connect="1" arrows="1" fold="1" page="1" pageScale="1" pageWidth="827" pageHeight="1169" math="0" shadow="0">
      <root>
        <mxCell id="0" />
        <mxCell id="1" parent="0" />
        <mxCell id="DXlCyL1Qz88-cnKDvmDq-165" value="" style="rounded=0;whiteSpace=wrap;html=1;strokeColor=#080703;fillColor=#FCFFF2;" vertex="1" parent="1">
          <mxGeometry x="590" y="430" width="90" height="60" as="geometry" />
        </mxCell>
        <mxCell id="DXlCyL1Qz88-cnKDvmDq-97" value="" style="rounded=1;whiteSpace=wrap;html=1;fillColor=#f8cecc;strokeColor=#b85450;opacity=60;" vertex="1" parent="1">
          <mxGeometry x="40" y="530" width="300" height="60" as="geometry" />
        </mxCell>
        <mxCell id="DXlCyL1Qz88-cnKDvmDq-98" value="" style="rounded=1;whiteSpace=wrap;html=1;fillColor=#f8cecc;strokeColor=#b85450;opacity=60;" vertex="1" parent="1">
          <mxGeometry x="400" y="530" width="220" height="60" as="geometry" />
        </mxCell>
        <mxCell id="DXlCyL1Qz88-cnKDvmDq-99" style="edgeStyle=orthogonalEdgeStyle;rounded=0;orthogonalLoop=1;jettySize=auto;html=1;exitX=1;exitY=0.5;exitDx=0;exitDy=0;entryX=0;entryY=0.5;entryDx=0;entryDy=0;strokeWidth=5;fillColor=#f8cecc;strokeColor=#b85450;" edge="1" parent="1">
          <mxGeometry relative="1" as="geometry">
            <mxPoint x="340" y="560" as="sourcePoint" />
            <mxPoint x="400" y="560" as="targetPoint" />
          </mxGeometry>
        </mxCell>
        <mxCell id="DXlCyL1Qz88-cnKDvmDq-35" value="" style="rounded=1;whiteSpace=wrap;html=1;fillColor=#dae8fc;strokeColor=#6c8ebf;opacity=60;" vertex="1" parent="1">
          <mxGeometry x="640" y="250" width="60" height="60" as="geometry" />
        </mxCell>
        <mxCell id="DXlCyL1Qz88-cnKDvmDq-34" value="" style="rounded=1;whiteSpace=wrap;html=1;fillColor=#f8cecc;strokeColor=#b85450;opacity=60;" vertex="1" parent="1">
          <mxGeometry x="400" y="170" width="220" height="60" as="geometry" />
        </mxCell>
        <mxCell id="DXlCyL1Qz88-cnKDvmDq-33" value="" style="rounded=1;whiteSpace=wrap;html=1;fillColor=#f8cecc;strokeColor=#b85450;opacity=60;" vertex="1" parent="1">
          <mxGeometry x="40" y="170" width="300" height="60" as="geometry" />
        </mxCell>
        <mxCell id="DXlCyL1Qz88-cnKDvmDq-30" value="" style="rounded=1;whiteSpace=wrap;html=1;fillColor=#d5e8d4;strokeColor=#82b366;opacity=60;" vertex="1" parent="1">
          <mxGeometry x="130" y="90" width="120" height="60" as="geometry" />
        </mxCell>
        <mxCell id="DXlCyL1Qz88-cnKDvmDq-31" value="" style="rounded=1;whiteSpace=wrap;html=1;fillColor=#d5e8d4;strokeColor=#82b366;opacity=60;" vertex="1" parent="1">
          <mxGeometry x="490" y="90" width="120" height="60" as="geometry" />
        </mxCell>
        <mxCell id="V1IsNGdMlHH5mV4LZ8SK-8" style="rounded=0;orthogonalLoop=1;jettySize=auto;html=1;exitX=0;exitY=1;exitDx=0;exitDy=0;entryX=0.5;entryY=0;entryDx=0;entryDy=0;" parent="1" source="V1IsNGdMlHH5mV4LZ8SK-2" target="V1IsNGdMlHH5mV4LZ8SK-4" edge="1">
          <mxGeometry relative="1" as="geometry" />
        </mxCell>
        <mxCell id="V1IsNGdMlHH5mV4LZ8SK-9" style="edgeStyle=none;rounded=0;orthogonalLoop=1;jettySize=auto;html=1;exitX=0.5;exitY=1;exitDx=0;exitDy=0;entryX=0.5;entryY=0;entryDx=0;entryDy=0;" parent="1" source="V1IsNGdMlHH5mV4LZ8SK-2" target="V1IsNGdMlHH5mV4LZ8SK-5" edge="1">
          <mxGeometry relative="1" as="geometry" />
        </mxCell>
        <mxCell id="V1IsNGdMlHH5mV4LZ8SK-10" style="edgeStyle=none;rounded=0;orthogonalLoop=1;jettySize=auto;html=1;exitX=0.5;exitY=1;exitDx=0;exitDy=0;entryX=0.5;entryY=0;entryDx=0;entryDy=0;" parent="1" source="V1IsNGdMlHH5mV4LZ8SK-2" target="V1IsNGdMlHH5mV4LZ8SK-6" edge="1">
          <mxGeometry relative="1" as="geometry" />
        </mxCell>
        <mxCell id="V1IsNGdMlHH5mV4LZ8SK-11" style="edgeStyle=none;rounded=0;orthogonalLoop=1;jettySize=auto;html=1;exitX=1;exitY=1;exitDx=0;exitDy=0;entryX=0.5;entryY=0;entryDx=0;entryDy=0;" parent="1" source="V1IsNGdMlHH5mV4LZ8SK-2" target="V1IsNGdMlHH5mV4LZ8SK-7" edge="1">
          <mxGeometry relative="1" as="geometry" />
        </mxCell>
        <mxCell id="V1IsNGdMlHH5mV4LZ8SK-2" value="&lt;font style=&quot;font-size: 18px&quot;&gt;A&lt;/font&gt;" style="ellipse;whiteSpace=wrap;html=1;aspect=fixed;" parent="1" vertex="1">
          <mxGeometry x="170" y="100" width="40" height="40" as="geometry" />
        </mxCell>
        <mxCell id="V1IsNGdMlHH5mV4LZ8SK-4" value="&lt;font style=&quot;font-size: 18px&quot;&gt;B&lt;/font&gt;" style="ellipse;whiteSpace=wrap;html=1;aspect=fixed;" parent="1" vertex="1">
          <mxGeometry x="50" y="180" width="40" height="40" as="geometry" />
        </mxCell>
        <mxCell id="V1IsNGdMlHH5mV4LZ8SK-5" value="&lt;font style=&quot;font-size: 18px&quot;&gt;C&lt;/font&gt;" style="ellipse;whiteSpace=wrap;html=1;aspect=fixed;" parent="1" vertex="1">
          <mxGeometry x="130" y="180" width="40" height="40" as="geometry" />
        </mxCell>
        <mxCell id="V1IsNGdMlHH5mV4LZ8SK-6" value="&lt;font style=&quot;font-size: 18px&quot;&gt;D&lt;/font&gt;" style="ellipse;whiteSpace=wrap;html=1;aspect=fixed;" parent="1" vertex="1">
          <mxGeometry x="210" y="180" width="40" height="40" as="geometry" />
        </mxCell>
        <mxCell id="V1IsNGdMlHH5mV4LZ8SK-7" value="&lt;font style=&quot;font-size: 18px&quot;&gt;E&lt;/font&gt;" style="ellipse;whiteSpace=wrap;html=1;aspect=fixed;" parent="1" vertex="1">
          <mxGeometry x="290" y="180" width="40" height="40" as="geometry" />
        </mxCell>
        <mxCell id="V1IsNGdMlHH5mV4LZ8SK-13" style="rounded=0;orthogonalLoop=1;jettySize=auto;html=1;exitX=0;exitY=1;exitDx=0;exitDy=0;entryX=0.5;entryY=0;entryDx=0;entryDy=0;" parent="1" source="V1IsNGdMlHH5mV4LZ8SK-17" target="V1IsNGdMlHH5mV4LZ8SK-18" edge="1">
          <mxGeometry relative="1" as="geometry" />
        </mxCell>
        <mxCell id="V1IsNGdMlHH5mV4LZ8SK-14" style="edgeStyle=none;rounded=0;orthogonalLoop=1;jettySize=auto;html=1;exitX=0.5;exitY=1;exitDx=0;exitDy=0;entryX=0.5;entryY=0;entryDx=0;entryDy=0;" parent="1" source="V1IsNGdMlHH5mV4LZ8SK-17" target="V1IsNGdMlHH5mV4LZ8SK-19" edge="1">
          <mxGeometry relative="1" as="geometry" />
        </mxCell>
        <mxCell id="V1IsNGdMlHH5mV4LZ8SK-15" style="edgeStyle=none;rounded=0;orthogonalLoop=1;jettySize=auto;html=1;exitX=0.5;exitY=1;exitDx=0;exitDy=0;entryX=0.5;entryY=0;entryDx=0;entryDy=0;" parent="1" source="V1IsNGdMlHH5mV4LZ8SK-17" target="V1IsNGdMlHH5mV4LZ8SK-20" edge="1">
          <mxGeometry relative="1" as="geometry" />
        </mxCell>
        <mxCell id="V1IsNGdMlHH5mV4LZ8SK-16" style="edgeStyle=none;rounded=0;orthogonalLoop=1;jettySize=auto;html=1;exitX=1;exitY=1;exitDx=0;exitDy=0;entryX=0;entryY=0;entryDx=0;entryDy=0;" parent="1" source="V1IsNGdMlHH5mV4LZ8SK-20" target="V1IsNGdMlHH5mV4LZ8SK-21" edge="1">
          <mxGeometry relative="1" as="geometry" />
        </mxCell>
        <mxCell id="V1IsNGdMlHH5mV4LZ8SK-17" value="&lt;font style=&quot;font-size: 18px&quot;&gt;A&lt;/font&gt;" style="ellipse;whiteSpace=wrap;html=1;aspect=fixed;" parent="1" vertex="1">
          <mxGeometry x="530" y="100" width="40" height="40" as="geometry" />
        </mxCell>
        <mxCell id="V1IsNGdMlHH5mV4LZ8SK-18" value="&lt;font style=&quot;font-size: 18px&quot;&gt;B&lt;/font&gt;" style="ellipse;whiteSpace=wrap;html=1;aspect=fixed;" parent="1" vertex="1">
          <mxGeometry x="410" y="180" width="40" height="40" as="geometry" />
        </mxCell>
        <mxCell id="V1IsNGdMlHH5mV4LZ8SK-19" value="&lt;font style=&quot;font-size: 18px&quot;&gt;E&lt;/font&gt;" style="ellipse;whiteSpace=wrap;html=1;aspect=fixed;" parent="1" vertex="1">
          <mxGeometry x="490" y="180" width="40" height="40" as="geometry" />
        </mxCell>
        <mxCell id="V1IsNGdMlHH5mV4LZ8SK-20" value="&lt;font style=&quot;font-size: 18px&quot;&gt;C&lt;/font&gt;" style="ellipse;whiteSpace=wrap;html=1;aspect=fixed;" parent="1" vertex="1">
          <mxGeometry x="570" y="180" width="40" height="40" as="geometry" />
        </mxCell>
        <mxCell id="V1IsNGdMlHH5mV4LZ8SK-21" value="&lt;font style=&quot;font-size: 18px&quot;&gt;D&lt;/font&gt;" style="ellipse;whiteSpace=wrap;html=1;aspect=fixed;" parent="1" vertex="1">
          <mxGeometry x="650" y="260" width="40" height="40" as="geometry" />
        </mxCell>
        <mxCell id="DXlCyL1Qz88-cnKDvmDq-4" style="edgeStyle=orthogonalEdgeStyle;rounded=0;orthogonalLoop=1;jettySize=auto;html=1;exitX=1;exitY=0.5;exitDx=0;exitDy=0;entryX=0;entryY=0.5;entryDx=0;entryDy=0;fillColor=#d5e8d4;strokeColor=#82b366;strokeWidth=5;" edge="1" parent="1" source="DXlCyL1Qz88-cnKDvmDq-2" target="DXlCyL1Qz88-cnKDvmDq-3">
          <mxGeometry relative="1" as="geometry" />
        </mxCell>
        <mxCell id="DXlCyL1Qz88-cnKDvmDq-2" value="" style="rounded=1;whiteSpace=wrap;html=1;fillColor=#d5e8d4;strokeColor=#82b366;opacity=60;" vertex="1" parent="1">
          <mxGeometry x="130" y="90" width="120" height="60" as="geometry" />
        </mxCell>
        <mxCell id="DXlCyL1Qz88-cnKDvmDq-3" value="" style="rounded=1;whiteSpace=wrap;html=1;fillColor=#d5e8d4;strokeColor=#82b366;opacity=60;" vertex="1" parent="1">
          <mxGeometry x="490" y="90" width="120" height="60" as="geometry" />
        </mxCell>
        <mxCell id="DXlCyL1Qz88-cnKDvmDq-7" style="edgeStyle=orthogonalEdgeStyle;rounded=0;orthogonalLoop=1;jettySize=auto;html=1;exitX=1;exitY=0.5;exitDx=0;exitDy=0;entryX=0;entryY=0.5;entryDx=0;entryDy=0;strokeWidth=5;fillColor=#f8cecc;strokeColor=#b85450;" edge="1" parent="1" source="DXlCyL1Qz88-cnKDvmDq-5" target="DXlCyL1Qz88-cnKDvmDq-6">
          <mxGeometry relative="1" as="geometry" />
        </mxCell>
        <mxCell id="DXlCyL1Qz88-cnKDvmDq-5" value="" style="rounded=1;whiteSpace=wrap;html=1;fillColor=#f8cecc;strokeColor=#b85450;opacity=60;" vertex="1" parent="1">
          <mxGeometry x="40" y="170" width="300" height="60" as="geometry" />
        </mxCell>
        <mxCell id="DXlCyL1Qz88-cnKDvmDq-6" value="" style="rounded=1;whiteSpace=wrap;html=1;fillColor=#f8cecc;strokeColor=#b85450;opacity=60;" vertex="1" parent="1">
          <mxGeometry x="400" y="170" width="220" height="60" as="geometry" />
        </mxCell>
        <mxCell id="DXlCyL1Qz88-cnKDvmDq-8" value="" style="rounded=1;whiteSpace=wrap;html=1;fillColor=#dae8fc;strokeColor=#6c8ebf;opacity=60;" vertex="1" parent="1">
          <mxGeometry x="640" y="250" width="60" height="60" as="geometry" />
        </mxCell>
        <mxCell id="DXlCyL1Qz88-cnKDvmDq-10" value="&lt;font face=&quot;Times New Roman&quot; style=&quot;font-size: 18px&quot;&gt;不可复用&lt;/font&gt;" style="text;html=1;strokeColor=#6c8ebf;fillColor=#dae8fc;align=center;verticalAlign=middle;whiteSpace=wrap;rounded=0;opacity=60;" vertex="1" parent="1">
          <mxGeometry x="630" y="320" width="80" height="20" as="geometry" />
        </mxCell>
        <mxCell id="DXlCyL1Qz88-cnKDvmDq-11" style="rounded=0;orthogonalLoop=1;jettySize=auto;html=1;exitX=0;exitY=1;exitDx=0;exitDy=0;entryX=0.5;entryY=0;entryDx=0;entryDy=0;" edge="1" source="DXlCyL1Qz88-cnKDvmDq-15" target="DXlCyL1Qz88-cnKDvmDq-16" parent="1">
          <mxGeometry relative="1" as="geometry" />
        </mxCell>
        <mxCell id="DXlCyL1Qz88-cnKDvmDq-12" style="edgeStyle=none;rounded=0;orthogonalLoop=1;jettySize=auto;html=1;exitX=0.5;exitY=1;exitDx=0;exitDy=0;entryX=0.5;entryY=0;entryDx=0;entryDy=0;" edge="1" source="DXlCyL1Qz88-cnKDvmDq-15" target="DXlCyL1Qz88-cnKDvmDq-17" parent="1">
          <mxGeometry relative="1" as="geometry" />
        </mxCell>
        <mxCell id="DXlCyL1Qz88-cnKDvmDq-13" style="edgeStyle=none;rounded=0;orthogonalLoop=1;jettySize=auto;html=1;exitX=0.5;exitY=1;exitDx=0;exitDy=0;entryX=0.5;entryY=0;entryDx=0;entryDy=0;" edge="1" source="DXlCyL1Qz88-cnKDvmDq-15" target="DXlCyL1Qz88-cnKDvmDq-18" parent="1">
          <mxGeometry relative="1" as="geometry" />
        </mxCell>
        <mxCell id="DXlCyL1Qz88-cnKDvmDq-14" style="edgeStyle=none;rounded=0;orthogonalLoop=1;jettySize=auto;html=1;exitX=1;exitY=1;exitDx=0;exitDy=0;entryX=0.5;entryY=0;entryDx=0;entryDy=0;" edge="1" source="DXlCyL1Qz88-cnKDvmDq-15" target="DXlCyL1Qz88-cnKDvmDq-19" parent="1">
          <mxGeometry relative="1" as="geometry" />
        </mxCell>
        <mxCell id="DXlCyL1Qz88-cnKDvmDq-15" value="&lt;font style=&quot;font-size: 18px&quot;&gt;A&lt;/font&gt;" style="ellipse;whiteSpace=wrap;html=1;aspect=fixed;" vertex="1" parent="1">
          <mxGeometry x="170" y="100" width="40" height="40" as="geometry" />
        </mxCell>
        <mxCell id="DXlCyL1Qz88-cnKDvmDq-16" value="&lt;font style=&quot;font-size: 18px&quot;&gt;B&lt;/font&gt;" style="ellipse;whiteSpace=wrap;html=1;aspect=fixed;" vertex="1" parent="1">
          <mxGeometry x="50" y="180" width="40" height="40" as="geometry" />
        </mxCell>
        <mxCell id="DXlCyL1Qz88-cnKDvmDq-17" value="&lt;font style=&quot;font-size: 18px&quot;&gt;C&lt;/font&gt;" style="ellipse;whiteSpace=wrap;html=1;aspect=fixed;" vertex="1" parent="1">
          <mxGeometry x="130" y="180" width="40" height="40" as="geometry" />
        </mxCell>
        <mxCell id="DXlCyL1Qz88-cnKDvmDq-18" value="&lt;font style=&quot;font-size: 18px&quot;&gt;D&lt;/font&gt;" style="ellipse;whiteSpace=wrap;html=1;aspect=fixed;" vertex="1" parent="1">
          <mxGeometry x="210" y="180" width="40" height="40" as="geometry" />
        </mxCell>
        <mxCell id="DXlCyL1Qz88-cnKDvmDq-19" value="&lt;font style=&quot;font-size: 18px&quot;&gt;E&lt;/font&gt;" style="ellipse;whiteSpace=wrap;html=1;aspect=fixed;" vertex="1" parent="1">
          <mxGeometry x="290" y="180" width="40" height="40" as="geometry" />
        </mxCell>
        <mxCell id="DXlCyL1Qz88-cnKDvmDq-20" style="rounded=0;orthogonalLoop=1;jettySize=auto;html=1;exitX=0;exitY=1;exitDx=0;exitDy=0;entryX=0.5;entryY=0;entryDx=0;entryDy=0;" edge="1" source="DXlCyL1Qz88-cnKDvmDq-24" target="DXlCyL1Qz88-cnKDvmDq-25" parent="1">
          <mxGeometry relative="1" as="geometry" />
        </mxCell>
        <mxCell id="DXlCyL1Qz88-cnKDvmDq-21" style="edgeStyle=none;rounded=0;orthogonalLoop=1;jettySize=auto;html=1;exitX=0.5;exitY=1;exitDx=0;exitDy=0;entryX=0.5;entryY=0;entryDx=0;entryDy=0;" edge="1" source="DXlCyL1Qz88-cnKDvmDq-24" target="DXlCyL1Qz88-cnKDvmDq-26" parent="1">
          <mxGeometry relative="1" as="geometry" />
        </mxCell>
        <mxCell id="DXlCyL1Qz88-cnKDvmDq-22" style="edgeStyle=none;rounded=0;orthogonalLoop=1;jettySize=auto;html=1;exitX=0.5;exitY=1;exitDx=0;exitDy=0;entryX=0.5;entryY=0;entryDx=0;entryDy=0;" edge="1" source="DXlCyL1Qz88-cnKDvmDq-24" target="DXlCyL1Qz88-cnKDvmDq-27" parent="1">
          <mxGeometry relative="1" as="geometry" />
        </mxCell>
        <mxCell id="DXlCyL1Qz88-cnKDvmDq-23" style="edgeStyle=none;rounded=0;orthogonalLoop=1;jettySize=auto;html=1;exitX=1;exitY=1;exitDx=0;exitDy=0;entryX=0;entryY=0;entryDx=0;entryDy=0;" edge="1" source="DXlCyL1Qz88-cnKDvmDq-27" target="DXlCyL1Qz88-cnKDvmDq-28" parent="1">
          <mxGeometry relative="1" as="geometry" />
        </mxCell>
        <mxCell id="DXlCyL1Qz88-cnKDvmDq-24" value="&lt;font style=&quot;font-size: 18px&quot;&gt;A&lt;/font&gt;" style="ellipse;whiteSpace=wrap;html=1;aspect=fixed;" vertex="1" parent="1">
          <mxGeometry x="530" y="100" width="40" height="40" as="geometry" />
        </mxCell>
        <mxCell id="DXlCyL1Qz88-cnKDvmDq-25" value="&lt;font style=&quot;font-size: 18px&quot;&gt;B&lt;/font&gt;" style="ellipse;whiteSpace=wrap;html=1;aspect=fixed;" vertex="1" parent="1">
          <mxGeometry x="410" y="180" width="40" height="40" as="geometry" />
        </mxCell>
        <mxCell id="DXlCyL1Qz88-cnKDvmDq-26" value="&lt;font style=&quot;font-size: 18px&quot;&gt;E&lt;/font&gt;" style="ellipse;whiteSpace=wrap;html=1;aspect=fixed;" vertex="1" parent="1">
          <mxGeometry x="490" y="180" width="40" height="40" as="geometry" />
        </mxCell>
        <mxCell id="DXlCyL1Qz88-cnKDvmDq-27" value="&lt;font style=&quot;font-size: 18px&quot;&gt;C&lt;/font&gt;" style="ellipse;whiteSpace=wrap;html=1;aspect=fixed;" vertex="1" parent="1">
          <mxGeometry x="570" y="180" width="40" height="40" as="geometry" />
        </mxCell>
        <mxCell id="DXlCyL1Qz88-cnKDvmDq-28" value="&lt;font style=&quot;font-size: 18px&quot;&gt;D&lt;/font&gt;" style="ellipse;whiteSpace=wrap;html=1;aspect=fixed;" vertex="1" parent="1">
          <mxGeometry x="650" y="260" width="40" height="40" as="geometry" />
        </mxCell>
        <mxCell id="DXlCyL1Qz88-cnKDvmDq-29" style="edgeStyle=orthogonalEdgeStyle;rounded=0;orthogonalLoop=1;jettySize=auto;html=1;exitX=1;exitY=0.5;exitDx=0;exitDy=0;entryX=0;entryY=0.5;entryDx=0;entryDy=0;fillColor=#d5e8d4;strokeColor=#82b366;strokeWidth=5;" edge="1" source="DXlCyL1Qz88-cnKDvmDq-30" target="DXlCyL1Qz88-cnKDvmDq-31" parent="1">
          <mxGeometry relative="1" as="geometry" />
        </mxCell>
        <mxCell id="DXlCyL1Qz88-cnKDvmDq-32" style="edgeStyle=orthogonalEdgeStyle;rounded=0;orthogonalLoop=1;jettySize=auto;html=1;exitX=1;exitY=0.5;exitDx=0;exitDy=0;entryX=0;entryY=0.5;entryDx=0;entryDy=0;strokeWidth=5;fillColor=#f8cecc;strokeColor=#b85450;" edge="1" source="DXlCyL1Qz88-cnKDvmDq-33" target="DXlCyL1Qz88-cnKDvmDq-34" parent="1">
          <mxGeometry relative="1" as="geometry" />
        </mxCell>
        <mxCell id="DXlCyL1Qz88-cnKDvmDq-36" value="&lt;font face=&quot;Times New Roman&quot; style=&quot;font-size: 18px&quot;&gt;不可复用&lt;/font&gt;" style="text;html=1;strokeColor=#6c8ebf;fillColor=#dae8fc;align=center;verticalAlign=middle;whiteSpace=wrap;rounded=0;opacity=60;" vertex="1" parent="1">
          <mxGeometry x="630" y="320" width="80" height="20" as="geometry" />
        </mxCell>
        <mxCell id="DXlCyL1Qz88-cnKDvmDq-37" value="&lt;font face=&quot;Times New Roman&quot; style=&quot;font-size: 18px&quot;&gt;新DOM树&lt;/font&gt;" style="text;html=1;strokeColor=none;fillColor=none;align=center;verticalAlign=middle;whiteSpace=wrap;rounded=0;" vertex="1" parent="1">
          <mxGeometry x="495" y="40" width="110" height="50" as="geometry" />
        </mxCell>
        <mxCell id="DXlCyL1Qz88-cnKDvmDq-38" value="&lt;font face=&quot;Times New Roman&quot; style=&quot;font-size: 18px&quot;&gt;旧DOM树&lt;/font&gt;" style="text;html=1;strokeColor=none;fillColor=none;align=center;verticalAlign=middle;whiteSpace=wrap;rounded=0;" vertex="1" parent="1">
          <mxGeometry x="130" y="40" width="110" height="50" as="geometry" />
        </mxCell>
        <mxCell id="DXlCyL1Qz88-cnKDvmDq-39" style="rounded=0;orthogonalLoop=1;jettySize=auto;html=1;exitX=0;exitY=1;exitDx=0;exitDy=0;entryX=0.5;entryY=0;entryDx=0;entryDy=0;" edge="1" parent="1" source="DXlCyL1Qz88-cnKDvmDq-43" target="DXlCyL1Qz88-cnKDvmDq-44">
          <mxGeometry relative="1" as="geometry" />
        </mxCell>
        <mxCell id="DXlCyL1Qz88-cnKDvmDq-40" style="edgeStyle=none;rounded=0;orthogonalLoop=1;jettySize=auto;html=1;exitX=0.5;exitY=1;exitDx=0;exitDy=0;entryX=0.5;entryY=0;entryDx=0;entryDy=0;" edge="1" parent="1" source="DXlCyL1Qz88-cnKDvmDq-43" target="DXlCyL1Qz88-cnKDvmDq-45">
          <mxGeometry relative="1" as="geometry" />
        </mxCell>
        <mxCell id="DXlCyL1Qz88-cnKDvmDq-41" style="edgeStyle=none;rounded=0;orthogonalLoop=1;jettySize=auto;html=1;exitX=0.5;exitY=1;exitDx=0;exitDy=0;entryX=0.5;entryY=0;entryDx=0;entryDy=0;" edge="1" parent="1" source="DXlCyL1Qz88-cnKDvmDq-43" target="DXlCyL1Qz88-cnKDvmDq-46">
          <mxGeometry relative="1" as="geometry" />
        </mxCell>
        <mxCell id="DXlCyL1Qz88-cnKDvmDq-42" style="edgeStyle=none;rounded=0;orthogonalLoop=1;jettySize=auto;html=1;exitX=1;exitY=1;exitDx=0;exitDy=0;entryX=0.5;entryY=0;entryDx=0;entryDy=0;" edge="1" parent="1" source="DXlCyL1Qz88-cnKDvmDq-43" target="DXlCyL1Qz88-cnKDvmDq-47">
          <mxGeometry relative="1" as="geometry" />
        </mxCell>
        <mxCell id="DXlCyL1Qz88-cnKDvmDq-43" value="&lt;font style=&quot;font-size: 18px&quot;&gt;A&lt;/font&gt;" style="ellipse;whiteSpace=wrap;html=1;aspect=fixed;" vertex="1" parent="1">
          <mxGeometry x="170" y="460" width="40" height="40" as="geometry" />
        </mxCell>
        <mxCell id="DXlCyL1Qz88-cnKDvmDq-44" value="&lt;font style=&quot;font-size: 18px&quot;&gt;B&lt;/font&gt;" style="ellipse;whiteSpace=wrap;html=1;aspect=fixed;" vertex="1" parent="1">
          <mxGeometry x="50" y="540" width="40" height="40" as="geometry" />
        </mxCell>
        <mxCell id="DXlCyL1Qz88-cnKDvmDq-45" value="&lt;font style=&quot;font-size: 18px&quot;&gt;C&lt;/font&gt;" style="ellipse;whiteSpace=wrap;html=1;aspect=fixed;" vertex="1" parent="1">
          <mxGeometry x="130" y="540" width="40" height="40" as="geometry" />
        </mxCell>
        <mxCell id="DXlCyL1Qz88-cnKDvmDq-46" value="&lt;font style=&quot;font-size: 18px&quot;&gt;D&lt;/font&gt;" style="ellipse;whiteSpace=wrap;html=1;aspect=fixed;" vertex="1" parent="1">
          <mxGeometry x="210" y="540" width="40" height="40" as="geometry" />
        </mxCell>
        <mxCell id="DXlCyL1Qz88-cnKDvmDq-47" value="&lt;font style=&quot;font-size: 18px&quot;&gt;E&lt;/font&gt;" style="ellipse;whiteSpace=wrap;html=1;aspect=fixed;" vertex="1" parent="1">
          <mxGeometry x="290" y="540" width="40" height="40" as="geometry" />
        </mxCell>
        <mxCell id="DXlCyL1Qz88-cnKDvmDq-48" style="rounded=0;orthogonalLoop=1;jettySize=auto;html=1;exitX=0;exitY=1;exitDx=0;exitDy=0;entryX=0.5;entryY=0;entryDx=0;entryDy=0;" edge="1" parent="1" source="DXlCyL1Qz88-cnKDvmDq-52" target="DXlCyL1Qz88-cnKDvmDq-53">
          <mxGeometry relative="1" as="geometry" />
        </mxCell>
        <mxCell id="DXlCyL1Qz88-cnKDvmDq-49" style="edgeStyle=none;rounded=0;orthogonalLoop=1;jettySize=auto;html=1;exitX=0.5;exitY=1;exitDx=0;exitDy=0;entryX=0.5;entryY=0;entryDx=0;entryDy=0;" edge="1" parent="1" source="DXlCyL1Qz88-cnKDvmDq-52" target="DXlCyL1Qz88-cnKDvmDq-54">
          <mxGeometry relative="1" as="geometry" />
        </mxCell>
        <mxCell id="DXlCyL1Qz88-cnKDvmDq-50" style="edgeStyle=none;rounded=0;orthogonalLoop=1;jettySize=auto;html=1;exitX=0.5;exitY=1;exitDx=0;exitDy=0;entryX=0.5;entryY=0;entryDx=0;entryDy=0;" edge="1" parent="1" source="DXlCyL1Qz88-cnKDvmDq-52" target="DXlCyL1Qz88-cnKDvmDq-55">
          <mxGeometry relative="1" as="geometry" />
        </mxCell>
        <mxCell id="DXlCyL1Qz88-cnKDvmDq-51" style="edgeStyle=none;rounded=0;orthogonalLoop=1;jettySize=auto;html=1;exitX=1;exitY=1;exitDx=0;exitDy=0;entryX=0;entryY=0;entryDx=0;entryDy=0;" edge="1" parent="1" source="DXlCyL1Qz88-cnKDvmDq-55" target="DXlCyL1Qz88-cnKDvmDq-56">
          <mxGeometry relative="1" as="geometry" />
        </mxCell>
        <mxCell id="DXlCyL1Qz88-cnKDvmDq-52" value="&lt;font style=&quot;font-size: 18px&quot;&gt;A&lt;/font&gt;" style="ellipse;whiteSpace=wrap;html=1;aspect=fixed;" vertex="1" parent="1">
          <mxGeometry x="530" y="460" width="40" height="40" as="geometry" />
        </mxCell>
        <mxCell id="DXlCyL1Qz88-cnKDvmDq-53" value="&lt;font style=&quot;font-size: 18px&quot;&gt;B&lt;/font&gt;" style="ellipse;whiteSpace=wrap;html=1;aspect=fixed;" vertex="1" parent="1">
          <mxGeometry x="410" y="540" width="40" height="40" as="geometry" />
        </mxCell>
        <mxCell id="DXlCyL1Qz88-cnKDvmDq-54" value="&lt;font style=&quot;font-size: 18px&quot;&gt;E&lt;/font&gt;" style="ellipse;whiteSpace=wrap;html=1;aspect=fixed;" vertex="1" parent="1">
          <mxGeometry x="490" y="540" width="40" height="40" as="geometry" />
        </mxCell>
        <mxCell id="DXlCyL1Qz88-cnKDvmDq-55" value="&lt;font style=&quot;font-size: 18px&quot;&gt;C&lt;/font&gt;" style="ellipse;whiteSpace=wrap;html=1;aspect=fixed;" vertex="1" parent="1">
          <mxGeometry x="570" y="540" width="40" height="40" as="geometry" />
        </mxCell>
        <mxCell id="DXlCyL1Qz88-cnKDvmDq-56" value="&lt;font style=&quot;font-size: 18px&quot;&gt;D&lt;/font&gt;" style="ellipse;whiteSpace=wrap;html=1;aspect=fixed;" vertex="1" parent="1">
          <mxGeometry x="650" y="620" width="40" height="40" as="geometry" />
        </mxCell>
        <mxCell id="DXlCyL1Qz88-cnKDvmDq-65" style="rounded=0;orthogonalLoop=1;jettySize=auto;html=1;exitX=0;exitY=1;exitDx=0;exitDy=0;entryX=0.5;entryY=0;entryDx=0;entryDy=0;" edge="1" parent="1" source="DXlCyL1Qz88-cnKDvmDq-69" target="DXlCyL1Qz88-cnKDvmDq-70">
          <mxGeometry relative="1" as="geometry" />
        </mxCell>
        <mxCell id="DXlCyL1Qz88-cnKDvmDq-66" style="edgeStyle=none;rounded=0;orthogonalLoop=1;jettySize=auto;html=1;exitX=0.5;exitY=1;exitDx=0;exitDy=0;entryX=0.5;entryY=0;entryDx=0;entryDy=0;" edge="1" parent="1" source="DXlCyL1Qz88-cnKDvmDq-69" target="DXlCyL1Qz88-cnKDvmDq-71">
          <mxGeometry relative="1" as="geometry" />
        </mxCell>
        <mxCell id="DXlCyL1Qz88-cnKDvmDq-67" style="edgeStyle=none;rounded=0;orthogonalLoop=1;jettySize=auto;html=1;exitX=0.5;exitY=1;exitDx=0;exitDy=0;entryX=0.5;entryY=0;entryDx=0;entryDy=0;" edge="1" parent="1" source="DXlCyL1Qz88-cnKDvmDq-69" target="DXlCyL1Qz88-cnKDvmDq-72">
          <mxGeometry relative="1" as="geometry" />
        </mxCell>
        <mxCell id="DXlCyL1Qz88-cnKDvmDq-68" style="edgeStyle=none;rounded=0;orthogonalLoop=1;jettySize=auto;html=1;exitX=1;exitY=1;exitDx=0;exitDy=0;entryX=0.5;entryY=0;entryDx=0;entryDy=0;" edge="1" parent="1" source="DXlCyL1Qz88-cnKDvmDq-69" target="DXlCyL1Qz88-cnKDvmDq-73">
          <mxGeometry relative="1" as="geometry" />
        </mxCell>
        <mxCell id="DXlCyL1Qz88-cnKDvmDq-69" value="&lt;font style=&quot;font-size: 18px&quot;&gt;A&lt;/font&gt;" style="ellipse;whiteSpace=wrap;html=1;aspect=fixed;" vertex="1" parent="1">
          <mxGeometry x="170" y="460" width="40" height="40" as="geometry" />
        </mxCell>
        <mxCell id="DXlCyL1Qz88-cnKDvmDq-70" value="&lt;font style=&quot;font-size: 18px&quot;&gt;B&lt;/font&gt;" style="ellipse;whiteSpace=wrap;html=1;aspect=fixed;" vertex="1" parent="1">
          <mxGeometry x="50" y="540" width="40" height="40" as="geometry" />
        </mxCell>
        <mxCell id="DXlCyL1Qz88-cnKDvmDq-71" value="&lt;font style=&quot;font-size: 18px&quot;&gt;C&lt;/font&gt;" style="ellipse;whiteSpace=wrap;html=1;aspect=fixed;" vertex="1" parent="1">
          <mxGeometry x="130" y="540" width="40" height="40" as="geometry" />
        </mxCell>
        <mxCell id="DXlCyL1Qz88-cnKDvmDq-72" value="&lt;font style=&quot;font-size: 18px&quot;&gt;D&lt;/font&gt;" style="ellipse;whiteSpace=wrap;html=1;aspect=fixed;" vertex="1" parent="1">
          <mxGeometry x="210" y="540" width="40" height="40" as="geometry" />
        </mxCell>
        <mxCell id="DXlCyL1Qz88-cnKDvmDq-73" value="&lt;font style=&quot;font-size: 18px&quot;&gt;E&lt;/font&gt;" style="ellipse;whiteSpace=wrap;html=1;aspect=fixed;" vertex="1" parent="1">
          <mxGeometry x="290" y="540" width="40" height="40" as="geometry" />
        </mxCell>
        <mxCell id="DXlCyL1Qz88-cnKDvmDq-74" style="rounded=0;orthogonalLoop=1;jettySize=auto;html=1;exitX=0;exitY=1;exitDx=0;exitDy=0;entryX=0.5;entryY=0;entryDx=0;entryDy=0;" edge="1" parent="1" source="DXlCyL1Qz88-cnKDvmDq-78" target="DXlCyL1Qz88-cnKDvmDq-79">
          <mxGeometry relative="1" as="geometry" />
        </mxCell>
        <mxCell id="DXlCyL1Qz88-cnKDvmDq-75" style="edgeStyle=none;rounded=0;orthogonalLoop=1;jettySize=auto;html=1;exitX=0.5;exitY=1;exitDx=0;exitDy=0;entryX=0.5;entryY=0;entryDx=0;entryDy=0;" edge="1" parent="1" source="DXlCyL1Qz88-cnKDvmDq-78" target="DXlCyL1Qz88-cnKDvmDq-80">
          <mxGeometry relative="1" as="geometry" />
        </mxCell>
        <mxCell id="DXlCyL1Qz88-cnKDvmDq-77" style="edgeStyle=none;rounded=0;orthogonalLoop=1;jettySize=auto;html=1;exitX=1;exitY=1;exitDx=0;exitDy=0;entryX=0;entryY=0;entryDx=0;entryDy=0;" edge="1" parent="1" source="DXlCyL1Qz88-cnKDvmDq-81" target="DXlCyL1Qz88-cnKDvmDq-82">
          <mxGeometry relative="1" as="geometry" />
        </mxCell>
        <mxCell id="DXlCyL1Qz88-cnKDvmDq-78" value="&lt;font style=&quot;font-size: 18px&quot;&gt;A&lt;/font&gt;" style="ellipse;whiteSpace=wrap;html=1;aspect=fixed;" vertex="1" parent="1">
          <mxGeometry x="530" y="460" width="40" height="40" as="geometry" />
        </mxCell>
        <mxCell id="DXlCyL1Qz88-cnKDvmDq-79" value="&lt;font style=&quot;font-size: 18px&quot;&gt;B&lt;/font&gt;" style="ellipse;whiteSpace=wrap;html=1;aspect=fixed;" vertex="1" parent="1">
          <mxGeometry x="410" y="540" width="40" height="40" as="geometry" />
        </mxCell>
        <mxCell id="DXlCyL1Qz88-cnKDvmDq-80" value="&lt;font style=&quot;font-size: 18px&quot;&gt;E&lt;/font&gt;" style="ellipse;whiteSpace=wrap;html=1;aspect=fixed;" vertex="1" parent="1">
          <mxGeometry x="490" y="540" width="40" height="40" as="geometry" />
        </mxCell>
        <mxCell id="DXlCyL1Qz88-cnKDvmDq-81" value="&lt;font style=&quot;font-size: 18px&quot;&gt;C&lt;/font&gt;" style="ellipse;whiteSpace=wrap;html=1;aspect=fixed;" vertex="1" parent="1">
          <mxGeometry x="570" y="540" width="40" height="40" as="geometry" />
        </mxCell>
        <mxCell id="DXlCyL1Qz88-cnKDvmDq-82" value="&lt;font style=&quot;font-size: 18px&quot;&gt;D&lt;/font&gt;" style="ellipse;whiteSpace=wrap;html=1;aspect=fixed;" vertex="1" parent="1">
          <mxGeometry x="650" y="620" width="40" height="40" as="geometry" />
        </mxCell>
        <mxCell id="DXlCyL1Qz88-cnKDvmDq-100" value="&lt;font color=&quot;#ffffff&quot;&gt;old_S&lt;/font&gt;" style="text;html=1;align=center;verticalAlign=middle;whiteSpace=wrap;rounded=0;fillColor=#FF3333;" vertex="1" parent="1">
          <mxGeometry x="50" y="620" width="40" height="20" as="geometry" />
        </mxCell>
        <mxCell id="DXlCyL1Qz88-cnKDvmDq-104" value="" style="endArrow=classic;html=1;strokeColor=#FF3333;strokeWidth=5;fillColor=#FF3333;" edge="1" parent="1">
          <mxGeometry width="50" height="50" relative="1" as="geometry">
            <mxPoint x="70.25" y="620" as="sourcePoint" />
            <mxPoint x="69.75" y="590" as="targetPoint" />
          </mxGeometry>
        </mxCell>
        <mxCell id="DXlCyL1Qz88-cnKDvmDq-106" value="&lt;font color=&quot;#ffffff&quot;&gt;old_E&lt;/font&gt;" style="text;html=1;align=center;verticalAlign=middle;whiteSpace=wrap;rounded=0;fillColor=#FF3333;" vertex="1" parent="1">
          <mxGeometry x="290" y="620" width="40" height="20" as="geometry" />
        </mxCell>
        <mxCell id="DXlCyL1Qz88-cnKDvmDq-107" value="" style="endArrow=classic;html=1;strokeColor=#FF3333;strokeWidth=5;fillColor=#FF3333;" edge="1" parent="1">
          <mxGeometry width="50" height="50" relative="1" as="geometry">
            <mxPoint x="310.25" y="619.9999999999999" as="sourcePoint" />
            <mxPoint x="309.75" y="590" as="targetPoint" />
          </mxGeometry>
        </mxCell>
        <mxCell id="DXlCyL1Qz88-cnKDvmDq-108" value="&lt;font color=&quot;#ffffff&quot;&gt;S&lt;/font&gt;" style="text;html=1;align=center;verticalAlign=middle;whiteSpace=wrap;rounded=0;fillColor=#FF3333;" vertex="1" parent="1">
          <mxGeometry x="420" y="620" width="20" height="20" as="geometry" />
        </mxCell>
        <mxCell id="DXlCyL1Qz88-cnKDvmDq-109" value="" style="endArrow=classic;html=1;strokeColor=#FF3333;strokeWidth=5;fillColor=#FF3333;" edge="1" parent="1">
          <mxGeometry width="50" height="50" relative="1" as="geometry">
            <mxPoint x="430.25" y="619.9999999999999" as="sourcePoint" />
            <mxPoint x="429.75" y="590" as="targetPoint" />
          </mxGeometry>
        </mxCell>
        <mxCell id="DXlCyL1Qz88-cnKDvmDq-110" value="&lt;font color=&quot;#ffffff&quot;&gt;E&lt;/font&gt;" style="text;html=1;align=center;verticalAlign=middle;whiteSpace=wrap;rounded=0;fillColor=#FF3333;" vertex="1" parent="1">
          <mxGeometry x="580" y="620" width="20" height="20" as="geometry" />
        </mxCell>
        <mxCell id="DXlCyL1Qz88-cnKDvmDq-111" value="" style="endArrow=classic;html=1;strokeColor=#FF3333;strokeWidth=5;fillColor=#FF3333;" edge="1" parent="1">
          <mxGeometry width="50" height="50" relative="1" as="geometry">
            <mxPoint x="590.25" y="619.9999999999999" as="sourcePoint" />
            <mxPoint x="589.75" y="590" as="targetPoint" />
          </mxGeometry>
        </mxCell>
        <mxCell id="DXlCyL1Qz88-cnKDvmDq-112" value="" style="rounded=1;whiteSpace=wrap;html=1;fillColor=#f8cecc;strokeColor=#b85450;opacity=60;" vertex="1" parent="1">
          <mxGeometry x="40" y="750" width="300" height="60" as="geometry" />
        </mxCell>
        <mxCell id="DXlCyL1Qz88-cnKDvmDq-113" value="" style="rounded=1;whiteSpace=wrap;html=1;fillColor=#f8cecc;strokeColor=#b85450;opacity=60;" vertex="1" parent="1">
          <mxGeometry x="400" y="750" width="220" height="60" as="geometry" />
        </mxCell>
        <mxCell id="DXlCyL1Qz88-cnKDvmDq-114" style="edgeStyle=orthogonalEdgeStyle;rounded=0;orthogonalLoop=1;jettySize=auto;html=1;exitX=1;exitY=0.5;exitDx=0;exitDy=0;entryX=0;entryY=0.5;entryDx=0;entryDy=0;strokeWidth=5;fillColor=#f8cecc;strokeColor=#b85450;" edge="1" parent="1">
          <mxGeometry relative="1" as="geometry">
            <mxPoint x="340" y="780" as="sourcePoint" />
            <mxPoint x="400" y="780" as="targetPoint" />
          </mxGeometry>
        </mxCell>
        <mxCell id="DXlCyL1Qz88-cnKDvmDq-115" style="rounded=0;orthogonalLoop=1;jettySize=auto;html=1;exitX=0;exitY=1;exitDx=0;exitDy=0;entryX=0.5;entryY=0;entryDx=0;entryDy=0;" edge="1" parent="1" source="DXlCyL1Qz88-cnKDvmDq-119" target="DXlCyL1Qz88-cnKDvmDq-120">
          <mxGeometry relative="1" as="geometry" />
        </mxCell>
        <mxCell id="DXlCyL1Qz88-cnKDvmDq-116" style="edgeStyle=none;rounded=0;orthogonalLoop=1;jettySize=auto;html=1;exitX=0.5;exitY=1;exitDx=0;exitDy=0;entryX=0.5;entryY=0;entryDx=0;entryDy=0;" edge="1" parent="1" source="DXlCyL1Qz88-cnKDvmDq-119" target="DXlCyL1Qz88-cnKDvmDq-121">
          <mxGeometry relative="1" as="geometry" />
        </mxCell>
        <mxCell id="DXlCyL1Qz88-cnKDvmDq-117" style="edgeStyle=none;rounded=0;orthogonalLoop=1;jettySize=auto;html=1;exitX=0.5;exitY=1;exitDx=0;exitDy=0;entryX=0.5;entryY=0;entryDx=0;entryDy=0;" edge="1" parent="1" source="DXlCyL1Qz88-cnKDvmDq-119" target="DXlCyL1Qz88-cnKDvmDq-122">
          <mxGeometry relative="1" as="geometry" />
        </mxCell>
        <mxCell id="DXlCyL1Qz88-cnKDvmDq-118" style="edgeStyle=none;rounded=0;orthogonalLoop=1;jettySize=auto;html=1;exitX=1;exitY=1;exitDx=0;exitDy=0;entryX=0.5;entryY=0;entryDx=0;entryDy=0;" edge="1" parent="1" source="DXlCyL1Qz88-cnKDvmDq-119" target="DXlCyL1Qz88-cnKDvmDq-123">
          <mxGeometry relative="1" as="geometry" />
        </mxCell>
        <mxCell id="DXlCyL1Qz88-cnKDvmDq-119" value="&lt;font style=&quot;font-size: 18px&quot;&gt;A&lt;/font&gt;" style="ellipse;whiteSpace=wrap;html=1;aspect=fixed;" vertex="1" parent="1">
          <mxGeometry x="170" y="680" width="40" height="40" as="geometry" />
        </mxCell>
        <mxCell id="DXlCyL1Qz88-cnKDvmDq-120" value="&lt;font style=&quot;font-size: 18px&quot;&gt;B&lt;/font&gt;" style="ellipse;whiteSpace=wrap;html=1;aspect=fixed;" vertex="1" parent="1">
          <mxGeometry x="50" y="760" width="40" height="40" as="geometry" />
        </mxCell>
        <mxCell id="DXlCyL1Qz88-cnKDvmDq-121" value="&lt;font style=&quot;font-size: 18px&quot;&gt;C&lt;/font&gt;" style="ellipse;whiteSpace=wrap;html=1;aspect=fixed;" vertex="1" parent="1">
          <mxGeometry x="130" y="760" width="40" height="40" as="geometry" />
        </mxCell>
        <mxCell id="DXlCyL1Qz88-cnKDvmDq-122" value="&lt;font style=&quot;font-size: 18px&quot;&gt;D&lt;/font&gt;" style="ellipse;whiteSpace=wrap;html=1;aspect=fixed;" vertex="1" parent="1">
          <mxGeometry x="210" y="760" width="40" height="40" as="geometry" />
        </mxCell>
        <mxCell id="DXlCyL1Qz88-cnKDvmDq-123" value="&lt;font style=&quot;font-size: 18px&quot;&gt;E&lt;/font&gt;" style="ellipse;whiteSpace=wrap;html=1;aspect=fixed;" vertex="1" parent="1">
          <mxGeometry x="290" y="760" width="40" height="40" as="geometry" />
        </mxCell>
        <mxCell id="DXlCyL1Qz88-cnKDvmDq-124" style="rounded=0;orthogonalLoop=1;jettySize=auto;html=1;exitX=0;exitY=1;exitDx=0;exitDy=0;entryX=0.5;entryY=0;entryDx=0;entryDy=0;" edge="1" parent="1" source="DXlCyL1Qz88-cnKDvmDq-128" target="DXlCyL1Qz88-cnKDvmDq-129">
          <mxGeometry relative="1" as="geometry" />
        </mxCell>
        <mxCell id="DXlCyL1Qz88-cnKDvmDq-125" style="edgeStyle=none;rounded=0;orthogonalLoop=1;jettySize=auto;html=1;exitX=0.5;exitY=1;exitDx=0;exitDy=0;entryX=0.5;entryY=0;entryDx=0;entryDy=0;" edge="1" parent="1" source="DXlCyL1Qz88-cnKDvmDq-128" target="DXlCyL1Qz88-cnKDvmDq-130">
          <mxGeometry relative="1" as="geometry" />
        </mxCell>
        <mxCell id="DXlCyL1Qz88-cnKDvmDq-126" style="edgeStyle=none;rounded=0;orthogonalLoop=1;jettySize=auto;html=1;exitX=0.5;exitY=1;exitDx=0;exitDy=0;entryX=0.5;entryY=0;entryDx=0;entryDy=0;" edge="1" parent="1" source="DXlCyL1Qz88-cnKDvmDq-128" target="DXlCyL1Qz88-cnKDvmDq-131">
          <mxGeometry relative="1" as="geometry" />
        </mxCell>
        <mxCell id="DXlCyL1Qz88-cnKDvmDq-127" style="edgeStyle=none;rounded=0;orthogonalLoop=1;jettySize=auto;html=1;exitX=1;exitY=1;exitDx=0;exitDy=0;entryX=0;entryY=0;entryDx=0;entryDy=0;" edge="1" parent="1" source="DXlCyL1Qz88-cnKDvmDq-131" target="DXlCyL1Qz88-cnKDvmDq-132">
          <mxGeometry relative="1" as="geometry" />
        </mxCell>
        <mxCell id="DXlCyL1Qz88-cnKDvmDq-128" value="&lt;font style=&quot;font-size: 18px&quot;&gt;A&lt;/font&gt;" style="ellipse;whiteSpace=wrap;html=1;aspect=fixed;" vertex="1" parent="1">
          <mxGeometry x="530" y="680" width="40" height="40" as="geometry" />
        </mxCell>
        <mxCell id="DXlCyL1Qz88-cnKDvmDq-129" value="&lt;font style=&quot;font-size: 18px&quot;&gt;B&lt;/font&gt;" style="ellipse;whiteSpace=wrap;html=1;aspect=fixed;" vertex="1" parent="1">
          <mxGeometry x="410" y="760" width="40" height="40" as="geometry" />
        </mxCell>
        <mxCell id="DXlCyL1Qz88-cnKDvmDq-130" value="&lt;font style=&quot;font-size: 18px&quot;&gt;E&lt;/font&gt;" style="ellipse;whiteSpace=wrap;html=1;aspect=fixed;" vertex="1" parent="1">
          <mxGeometry x="490" y="760" width="40" height="40" as="geometry" />
        </mxCell>
        <mxCell id="DXlCyL1Qz88-cnKDvmDq-131" value="&lt;font style=&quot;font-size: 18px&quot;&gt;C&lt;/font&gt;" style="ellipse;whiteSpace=wrap;html=1;aspect=fixed;" vertex="1" parent="1">
          <mxGeometry x="570" y="760" width="40" height="40" as="geometry" />
        </mxCell>
        <mxCell id="DXlCyL1Qz88-cnKDvmDq-132" value="&lt;font style=&quot;font-size: 18px&quot;&gt;D&lt;/font&gt;" style="ellipse;whiteSpace=wrap;html=1;aspect=fixed;" vertex="1" parent="1">
          <mxGeometry x="650" y="840" width="40" height="40" as="geometry" />
        </mxCell>
        <mxCell id="DXlCyL1Qz88-cnKDvmDq-133" style="rounded=0;orthogonalLoop=1;jettySize=auto;html=1;exitX=0;exitY=1;exitDx=0;exitDy=0;entryX=0.5;entryY=0;entryDx=0;entryDy=0;" edge="1" parent="1" source="DXlCyL1Qz88-cnKDvmDq-137" target="DXlCyL1Qz88-cnKDvmDq-138">
          <mxGeometry relative="1" as="geometry" />
        </mxCell>
        <mxCell id="DXlCyL1Qz88-cnKDvmDq-134" style="edgeStyle=none;rounded=0;orthogonalLoop=1;jettySize=auto;html=1;exitX=0.5;exitY=1;exitDx=0;exitDy=0;entryX=0.5;entryY=0;entryDx=0;entryDy=0;" edge="1" parent="1" source="DXlCyL1Qz88-cnKDvmDq-137" target="DXlCyL1Qz88-cnKDvmDq-139">
          <mxGeometry relative="1" as="geometry" />
        </mxCell>
        <mxCell id="DXlCyL1Qz88-cnKDvmDq-135" style="edgeStyle=none;rounded=0;orthogonalLoop=1;jettySize=auto;html=1;exitX=0.5;exitY=1;exitDx=0;exitDy=0;entryX=0.5;entryY=0;entryDx=0;entryDy=0;" edge="1" parent="1" source="DXlCyL1Qz88-cnKDvmDq-137" target="DXlCyL1Qz88-cnKDvmDq-140">
          <mxGeometry relative="1" as="geometry" />
        </mxCell>
        <mxCell id="DXlCyL1Qz88-cnKDvmDq-136" style="edgeStyle=none;rounded=0;orthogonalLoop=1;jettySize=auto;html=1;exitX=1;exitY=1;exitDx=0;exitDy=0;entryX=0.5;entryY=0;entryDx=0;entryDy=0;" edge="1" parent="1" source="DXlCyL1Qz88-cnKDvmDq-137" target="DXlCyL1Qz88-cnKDvmDq-141">
          <mxGeometry relative="1" as="geometry" />
        </mxCell>
        <mxCell id="DXlCyL1Qz88-cnKDvmDq-137" value="&lt;font style=&quot;font-size: 18px&quot;&gt;A&lt;/font&gt;" style="ellipse;whiteSpace=wrap;html=1;aspect=fixed;" vertex="1" parent="1">
          <mxGeometry x="170" y="680" width="40" height="40" as="geometry" />
        </mxCell>
        <mxCell id="DXlCyL1Qz88-cnKDvmDq-138" value="&lt;font style=&quot;font-size: 18px&quot;&gt;B&lt;/font&gt;" style="ellipse;whiteSpace=wrap;html=1;aspect=fixed;" vertex="1" parent="1">
          <mxGeometry x="50" y="760" width="40" height="40" as="geometry" />
        </mxCell>
        <mxCell id="DXlCyL1Qz88-cnKDvmDq-139" value="&lt;font style=&quot;font-size: 18px&quot;&gt;C&lt;/font&gt;" style="ellipse;whiteSpace=wrap;html=1;aspect=fixed;" vertex="1" parent="1">
          <mxGeometry x="130" y="760" width="40" height="40" as="geometry" />
        </mxCell>
        <mxCell id="DXlCyL1Qz88-cnKDvmDq-140" value="&lt;font style=&quot;font-size: 18px&quot;&gt;D&lt;/font&gt;" style="ellipse;whiteSpace=wrap;html=1;aspect=fixed;" vertex="1" parent="1">
          <mxGeometry x="210" y="760" width="40" height="40" as="geometry" />
        </mxCell>
        <mxCell id="DXlCyL1Qz88-cnKDvmDq-141" value="&lt;font style=&quot;font-size: 18px&quot;&gt;E&lt;/font&gt;" style="ellipse;whiteSpace=wrap;html=1;aspect=fixed;" vertex="1" parent="1">
          <mxGeometry x="290" y="760" width="40" height="40" as="geometry" />
        </mxCell>
        <mxCell id="DXlCyL1Qz88-cnKDvmDq-142" style="rounded=0;orthogonalLoop=1;jettySize=auto;html=1;exitX=0;exitY=1;exitDx=0;exitDy=0;entryX=0.5;entryY=0;entryDx=0;entryDy=0;" edge="1" parent="1" source="DXlCyL1Qz88-cnKDvmDq-145" target="DXlCyL1Qz88-cnKDvmDq-146">
          <mxGeometry relative="1" as="geometry" />
        </mxCell>
        <mxCell id="DXlCyL1Qz88-cnKDvmDq-143" style="edgeStyle=none;rounded=0;orthogonalLoop=1;jettySize=auto;html=1;exitX=0.5;exitY=1;exitDx=0;exitDy=0;entryX=0.5;entryY=0;entryDx=0;entryDy=0;" edge="1" parent="1" source="DXlCyL1Qz88-cnKDvmDq-145" target="DXlCyL1Qz88-cnKDvmDq-147">
          <mxGeometry relative="1" as="geometry" />
        </mxCell>
        <mxCell id="DXlCyL1Qz88-cnKDvmDq-144" style="edgeStyle=none;rounded=0;orthogonalLoop=1;jettySize=auto;html=1;exitX=1;exitY=1;exitDx=0;exitDy=0;entryX=0;entryY=0;entryDx=0;entryDy=0;" edge="1" parent="1" source="DXlCyL1Qz88-cnKDvmDq-148" target="DXlCyL1Qz88-cnKDvmDq-149">
          <mxGeometry relative="1" as="geometry" />
        </mxCell>
        <mxCell id="DXlCyL1Qz88-cnKDvmDq-145" value="&lt;font style=&quot;font-size: 18px&quot;&gt;A&lt;/font&gt;" style="ellipse;whiteSpace=wrap;html=1;aspect=fixed;" vertex="1" parent="1">
          <mxGeometry x="530" y="680" width="40" height="40" as="geometry" />
        </mxCell>
        <mxCell id="DXlCyL1Qz88-cnKDvmDq-146" value="&lt;font style=&quot;font-size: 18px&quot;&gt;B&lt;/font&gt;" style="ellipse;whiteSpace=wrap;html=1;aspect=fixed;" vertex="1" parent="1">
          <mxGeometry x="410" y="760" width="40" height="40" as="geometry" />
        </mxCell>
        <mxCell id="DXlCyL1Qz88-cnKDvmDq-147" value="&lt;font style=&quot;font-size: 18px&quot;&gt;E&lt;/font&gt;" style="ellipse;whiteSpace=wrap;html=1;aspect=fixed;" vertex="1" parent="1">
          <mxGeometry x="490" y="760" width="40" height="40" as="geometry" />
        </mxCell>
        <mxCell id="DXlCyL1Qz88-cnKDvmDq-148" value="&lt;font style=&quot;font-size: 18px&quot;&gt;C&lt;/font&gt;" style="ellipse;whiteSpace=wrap;html=1;aspect=fixed;" vertex="1" parent="1">
          <mxGeometry x="570" y="760" width="40" height="40" as="geometry" />
        </mxCell>
        <mxCell id="DXlCyL1Qz88-cnKDvmDq-149" value="&lt;font style=&quot;font-size: 18px&quot;&gt;D&lt;/font&gt;" style="ellipse;whiteSpace=wrap;html=1;aspect=fixed;" vertex="1" parent="1">
          <mxGeometry x="650" y="840" width="40" height="40" as="geometry" />
        </mxCell>
        <mxCell id="DXlCyL1Qz88-cnKDvmDq-150" value="&lt;font color=&quot;#ffffff&quot;&gt;old_S&lt;/font&gt;" style="text;html=1;align=center;verticalAlign=middle;whiteSpace=wrap;rounded=0;fillColor=#FF3333;" vertex="1" parent="1">
          <mxGeometry x="50" y="840" width="40" height="20" as="geometry" />
        </mxCell>
        <mxCell id="DXlCyL1Qz88-cnKDvmDq-151" value="" style="endArrow=classic;html=1;strokeColor=#FF3333;strokeWidth=5;fillColor=#FF3333;" edge="1" parent="1">
          <mxGeometry width="50" height="50" relative="1" as="geometry">
            <mxPoint x="70.25" y="839.9999999999999" as="sourcePoint" />
            <mxPoint x="69.75" y="810" as="targetPoint" />
          </mxGeometry>
        </mxCell>
        <mxCell id="DXlCyL1Qz88-cnKDvmDq-152" value="&lt;font color=&quot;#ffffff&quot;&gt;old_E&lt;/font&gt;" style="text;html=1;align=center;verticalAlign=middle;whiteSpace=wrap;rounded=0;fillColor=#FF3333;" vertex="1" parent="1">
          <mxGeometry x="290" y="840" width="40" height="20" as="geometry" />
        </mxCell>
        <mxCell id="DXlCyL1Qz88-cnKDvmDq-153" value="" style="endArrow=classic;html=1;strokeColor=#FF3333;strokeWidth=5;fillColor=#FF3333;" edge="1" parent="1">
          <mxGeometry width="50" height="50" relative="1" as="geometry">
            <mxPoint x="310.25" y="839.9999999999999" as="sourcePoint" />
            <mxPoint x="309.75" y="810" as="targetPoint" />
          </mxGeometry>
        </mxCell>
        <mxCell id="DXlCyL1Qz88-cnKDvmDq-154" value="&lt;font color=&quot;#ffffff&quot;&gt;S&lt;/font&gt;" style="text;html=1;align=center;verticalAlign=middle;whiteSpace=wrap;rounded=0;fillColor=#FF3333;" vertex="1" parent="1">
          <mxGeometry x="420" y="840" width="20" height="20" as="geometry" />
        </mxCell>
        <mxCell id="DXlCyL1Qz88-cnKDvmDq-155" value="" style="endArrow=classic;html=1;strokeColor=#FF3333;strokeWidth=5;fillColor=#FF3333;" edge="1" parent="1">
          <mxGeometry width="50" height="50" relative="1" as="geometry">
            <mxPoint x="430.25" y="839.9999999999999" as="sourcePoint" />
            <mxPoint x="429.75" y="810" as="targetPoint" />
          </mxGeometry>
        </mxCell>
        <mxCell id="DXlCyL1Qz88-cnKDvmDq-156" value="&lt;font color=&quot;#ffffff&quot;&gt;E&lt;/font&gt;" style="text;html=1;align=center;verticalAlign=middle;whiteSpace=wrap;rounded=0;fillColor=#FF3333;" vertex="1" parent="1">
          <mxGeometry x="580" y="840" width="20" height="20" as="geometry" />
        </mxCell>
        <mxCell id="DXlCyL1Qz88-cnKDvmDq-157" value="" style="endArrow=classic;html=1;strokeColor=#FF3333;strokeWidth=5;fillColor=#FF3333;" edge="1" parent="1">
          <mxGeometry width="50" height="50" relative="1" as="geometry">
            <mxPoint x="590.25" y="839.9999999999999" as="sourcePoint" />
            <mxPoint x="589.75" y="810" as="targetPoint" />
          </mxGeometry>
        </mxCell>
        <mxCell id="DXlCyL1Qz88-cnKDvmDq-158" value="" style="endArrow=none;html=1;strokeColor=#FF3333;strokeWidth=5;fillColor=#FF3333;" edge="1" parent="1">
          <mxGeometry width="50" height="50" relative="1" as="geometry">
            <mxPoint x="600" y="442" as="sourcePoint" />
            <mxPoint x="640" y="442" as="targetPoint" />
          </mxGeometry>
        </mxCell>
        <mxCell id="DXlCyL1Qz88-cnKDvmDq-159" value="" style="endArrow=none;html=1;strokeWidth=5;fillColor=#FF3333;strokeColor=#3399FF;" edge="1" parent="1">
          <mxGeometry width="50" height="50" relative="1" as="geometry">
            <mxPoint x="600" y="461" as="sourcePoint" />
            <mxPoint x="640" y="461" as="targetPoint" />
          </mxGeometry>
        </mxCell>
        <mxCell id="DXlCyL1Qz88-cnKDvmDq-160" value="" style="endArrow=none;html=1;strokeWidth=5;fillColor=#FF3333;strokeColor=#33FF99;" edge="1" parent="1">
          <mxGeometry width="50" height="50" relative="1" as="geometry">
            <mxPoint x="600" y="478" as="sourcePoint" />
            <mxPoint x="640" y="478" as="targetPoint" />
          </mxGeometry>
        </mxCell>
        <mxCell id="DXlCyL1Qz88-cnKDvmDq-162" value="增加&lt;span style=&quot;color: rgba(0 , 0 , 0 , 0) ; font-family: monospace ; font-size: 0px&quot;&gt;%3CmxGraphModel%3E%3Croot%3E%3CmxCell%20id%3D%220%22%2F%3E%3CmxCell%20id%3D%221%22%20parent%3D%220%22%2F%3E%3CmxCell%20id%3D%222%22%20value%3D%22%22%20style%3D%22endArrow%3Dnone%3Bhtml%3D1%3BstrokeColor%3D%23FF3333%3BstrokeWidth%3D5%3BfillColor%3D%23FF3333%3B%22%20edge%3D%221%22%20parent%3D%221%22%3E%3CmxGeometry%20width%3D%2250%22%20height%3D%2250%22%20relative%3D%221%22%20as%3D%22geometry%22%3E%3CmxPoint%20x%3D%22610%22%20y%3D%22440%22%20as%3D%22sourcePoint%22%2F%3E%3CmxPoint%20x%3D%22650%22%20y%3D%22440%22%20as%3D%22targetPoint%22%2F%3E%3C%2FmxGeometry%3E%3C%2FmxCell%3E%3C%2Froot%3E%3C%2FmxGraphModel%3E&lt;/span&gt;" style="text;html=1;strokeColor=none;fillColor=none;align=center;verticalAlign=middle;whiteSpace=wrap;rounded=0;" vertex="1" parent="1">
          <mxGeometry x="640" y="430" width="40" height="20" as="geometry" />
        </mxCell>
        <mxCell id="DXlCyL1Qz88-cnKDvmDq-163" value="不变" style="text;html=1;strokeColor=none;fillColor=none;align=center;verticalAlign=middle;whiteSpace=wrap;rounded=0;" vertex="1" parent="1">
          <mxGeometry x="640" y="450" width="40" height="20" as="geometry" />
        </mxCell>
        <mxCell id="DXlCyL1Qz88-cnKDvmDq-164" value="减少" style="text;html=1;strokeColor=none;fillColor=none;align=center;verticalAlign=middle;whiteSpace=wrap;rounded=0;" vertex="1" parent="1">
          <mxGeometry x="640" y="470" width="40" height="20" as="geometry" />
        </mxCell>
      </root>
    </mxGraphModel>
  </diagram>
</mxfile>
